# xmcd
#
# Track frame offsets: 
#        150
#        10071
#        19228
#        28505
#        38787
#        51177
#        59501
#        69397
#        79196
#        89809
#        98634
#        111323
#        120073
#        133232
#        145327
#        154623
#        166098
#        176443
#        186663
#        196493
#        206929
#        217181
#        226526
#        240784
#        247644
#        259233
#        269985
#        283194
#
# Disc length: 3908 seconds
#
# Revision: 2
# Processed by: cddbd v1.5.2PL0 Copyright (c) Steve Scherf et al.
# Submitted via: ExactAudioCopyFreeDBPlugin 1.0
#
DISCID=940f421c
DTITLE=Various Artist - By the Bayou [Ace Records]
DYEAR=2012
DGENRE=Rhythm and Blues
TTITLE0=Tommy Todd - Tag Along
TTITLE1=Al Ferrier - Kiss Me Baby
TTITLE2=Johnny Jano - She's Mine
TTITLE3=Rod Bernard and The Twisters - Linda Gail
TTITLE4=Gil Giroy and The Jolly Rockers - Laura Lee
TTITLE5=Jivin' Gene and The Jokers - My Need for Love
TTITLE6=Vince Anthony and The Blue Notes - Watch My Smoke
TTITLE7=Bonnie Fussell and The Jives - Too High Class
TTITLE8=Al Ferrier - Indian Rock 'n' Roll
TTITLE9=Hunter Watts and His Southern Pals - Wild Man Rock
TTITLE10=Lawrence Walker and His Wandering Aces - Keep Your Hands of It
TTITLE11=Nathan Abshire and The Pine Grove Boys - That's All Right Mama 
TTITLE11=(ft Robert Bertrand, vocals)
TTITLE12=Bill and Carroll and The Neches Valley Boys - Feel So Good
TTITLE13=Arnold Broussard - Some Other Time
TTITLE14=Ronnie Bennett - Just You Wait and See
TTITLE15=Rod Bernard and The Twisters - All Night in Jail
TTITLE16=Warren Storm - Kansas City
TTITLE17=Nathan and The Sparks - Don't Say No
TTITLE18=Tommy Todd - I Got a Great Big Love
TTITLE19=Jay Chevalier and The Long Shots - Big Cloud (Part 1)
TTITLE20=Rocket Morgan - Release Me
TTITLE21=Wiley Barkdull with Rusty and Doug - Rattlesnake
TTITLE22=Johnny Jano - I'd Make a Good Man for You
TTITLE23=Jivin' Gene - I'm in Love with You
TTITLE24=Rod Bernard and The Twisters - Little Bitty Mama
TTITLE25=Tommy Todd - I'll Be There
TTITLE26=The Playboys - Boogie Children - Walking with Frankie (ft Joh
TTITLE26=n Fred, vocals)
TTITLE27=Rocket Morgan - Tag Along
EXTD=YEAR: 2012
EXTT0=
EXTT1=
EXTT2=
EXTT3=
EXTT4=
EXTT5=
EXTT6=
EXTT7=
EXTT8=
EXTT9=
EXTT10=
EXTT11=
EXTT12=
EXTT13=
EXTT14=
EXTT15=
EXTT16=
EXTT17=
EXTT18=
EXTT19=
EXTT20=
EXTT21=
EXTT22=
EXTT23=
EXTT24=
EXTT25=
EXTT26=
EXTT27=
PLAYORDER=
